<svg width="16" height="16" viewBox="0 0 16 16" fill="none" xmlns="http://www.w3.org/2000/svg">
<path d="M5.56984 8.20922L4.25054 9.90909M5.56984 8.20922C6.3408 8.60222 7.18111 8.81818 8.06056 8.81818M5.56984 8.20922C4.852 7.84329 4.19429 7.32388 3.62107 6.68239M8.06056 8.81818C8.94002 8.81818 9.78033 8.60222 10.5513 8.20922M8.06056 8.81818V11M10.5513 8.20922L11.8706 9.90909M10.5513 8.20922C11.2081 7.87438 11.8147 7.41102 12.3522 6.8432M3.62107 6.68239C3.18022 6.18903 2.78936 5.62348 2.45956 5M3.62107 6.68239L2 7.68548M13.6616 5C13.2953 5.69234 12.8538 6.31326 12.3522 6.8432M12.3522 6.8432L14 7.87701" stroke="#011627" stroke-width="2" stroke-linecap="round" stroke-linejoin="round"/>
</svg>
