<svg width="113" height="8" viewBox="0 0 113 8" fill="none" xmlns="http://www.w3.org/2000/svg">
<path opacity="0.15" d="M3.576 7.272C3.13867 7.272 2.728 7.18933 2.344 7.024C1.96 6.864 1.62133 6.64 1.328 6.352C1.04 6.05867 0.813333 5.72 0.648 5.336C0.488 4.952 0.408 4.54133 0.408 4.104C0.408 3.66133 0.488 3.25067 0.648 2.872C0.813333 2.488 1.04 2.152 1.328 1.864C1.62133 1.57067 1.96 1.344 2.344 1.184C2.728 1.01867 3.13867 0.936 3.576 0.936C4.01867 0.936 4.42933 1.01867 4.808 1.184C5.192 1.344 5.528 1.57067 5.816 1.864C6.10933 2.152 6.336 2.488 6.496 2.872C6.66133 3.25067 6.744 3.66133 6.744 4.104C6.744 4.54133 6.66133 4.952 6.496 5.336C6.336 5.72 6.10933 6.05867 5.816 6.352C5.528 6.64 5.192 6.864 4.808 7.024C4.42933 7.18933 4.01867 7.272 3.576 7.272ZM18.7244 7.272C18.2871 7.272 17.8764 7.18933 17.4924 7.024C17.1084 6.864 16.7698 6.64 16.4764 6.352C16.1884 6.05867 15.9618 5.72 15.7964 5.336C15.6364 4.952 15.5564 4.54133 15.5564 4.104C15.5564 3.66133 15.6364 3.25067 15.7964 2.872C15.9618 2.488 16.1884 2.152 16.4764 1.864C16.7698 1.57067 17.1084 1.344 17.4924 1.184C17.8764 1.01867 18.2871 0.936 18.7244 0.936C19.1671 0.936 19.5778 1.01867 19.9564 1.184C20.3404 1.344 20.6764 1.57067 20.9644 1.864C21.2578 2.152 21.4844 2.488 21.6444 2.872C21.8098 3.25067 21.8924 3.66133 21.8924 4.104C21.8924 4.54133 21.8098 4.952 21.6444 5.336C21.4844 5.72 21.2578 6.05867 20.9644 6.352C20.6764 6.64 20.3404 6.864 19.9564 7.024C19.5778 7.18933 19.1671 7.272 18.7244 7.272ZM33.8729 7.272C33.4355 7.272 33.0249 7.18933 32.6409 7.024C32.2569 6.864 31.9182 6.64 31.6249 6.352C31.3369 6.05867 31.1102 5.72 30.9449 5.336C30.7849 4.952 30.7049 4.54133 30.7049 4.104C30.7049 3.66133 30.7849 3.25067 30.9449 2.872C31.1102 2.488 31.3369 2.152 31.6249 1.864C31.9182 1.57067 32.2569 1.344 32.6409 1.184C33.0249 1.01867 33.4355 0.936 33.8729 0.936C34.3155 0.936 34.7262 1.01867 35.1049 1.184C35.4889 1.344 35.8249 1.57067 36.1129 1.864C36.4062 2.152 36.6329 2.488 36.7929 2.872C36.9582 3.25067 37.0409 3.66133 37.0409 4.104C37.0409 4.54133 36.9582 4.952 36.7929 5.336C36.6329 5.72 36.4062 6.05867 36.1129 6.352C35.8249 6.64 35.4889 6.864 35.1049 7.024C34.7262 7.18933 34.3155 7.272 33.8729 7.272ZM49.0213 7.272C48.584 7.272 48.1733 7.18933 47.7893 7.024C47.4053 6.864 47.0666 6.64 46.7733 6.352C46.4853 6.05867 46.2586 5.72 46.0933 5.336C45.9333 4.952 45.8533 4.54133 45.8533 4.104C45.8533 3.66133 45.9333 3.25067 46.0933 2.872C46.2586 2.488 46.4853 2.152 46.7733 1.864C47.0666 1.57067 47.4053 1.344 47.7893 1.184C48.1733 1.01867 48.584 0.936 49.0213 0.936C49.464 0.936 49.8746 1.01867 50.2533 1.184C50.6373 1.344 50.9733 1.57067 51.2613 1.864C51.5546 2.152 51.7813 2.488 51.9413 2.872C52.1066 3.25067 52.1893 3.66133 52.1893 4.104C52.1893 4.54133 52.1066 4.952 51.9413 5.336C51.7813 5.72 51.5546 6.05867 51.2613 6.352C50.9733 6.64 50.6373 6.864 50.2533 7.024C49.8746 7.18933 49.464 7.272 49.0213 7.272ZM64.1698 7.272C63.7324 7.272 63.3218 7.18933 62.9378 7.024C62.5538 6.864 62.2151 6.64 61.9218 6.352C61.6338 6.05867 61.4071 5.72 61.2418 5.336C61.0818 4.952 61.0018 4.54133 61.0018 4.104C61.0018 3.66133 61.0818 3.25067 61.2418 2.872C61.4071 2.488 61.6338 2.152 61.9218 1.864C62.2151 1.57067 62.5538 1.344 62.9378 1.184C63.3218 1.01867 63.7324 0.936 64.1698 0.936C64.6124 0.936 65.0231 1.01867 65.4018 1.184C65.7858 1.344 66.1218 1.57067 66.4098 1.864C66.7031 2.152 66.9298 2.488 67.0898 2.872C67.2551 3.25067 67.3378 3.66133 67.3378 4.104C67.3378 4.54133 67.2551 4.952 67.0898 5.336C66.9298 5.72 66.7031 6.05867 66.4098 6.352C66.1218 6.64 65.7858 6.864 65.4018 7.024C65.0231 7.18933 64.6124 7.272 64.1698 7.272ZM79.3182 7.272C78.8809 7.272 78.4702 7.18933 78.0862 7.024C77.7022 6.864 77.3635 6.64 77.0702 6.352C76.7822 6.05867 76.5555 5.72 76.3902 5.336C76.2302 4.952 76.1502 4.54133 76.1502 4.104C76.1502 3.66133 76.2302 3.25067 76.3902 2.872C76.5555 2.488 76.7822 2.152 77.0702 1.864C77.3635 1.57067 77.7022 1.344 78.0862 1.184C78.4702 1.01867 78.8809 0.936 79.3182 0.936C79.7609 0.936 80.1715 1.01867 80.5502 1.184C80.9342 1.344 81.2702 1.57067 81.5582 1.864C81.8515 2.152 82.0782 2.488 82.2382 2.872C82.4035 3.25067 82.4862 3.66133 82.4862 4.104C82.4862 4.54133 82.4035 4.952 82.2382 5.336C82.0782 5.72 81.8515 6.05867 81.5582 6.352C81.2702 6.64 80.9342 6.864 80.5502 7.024C80.1715 7.18933 79.7609 7.272 79.3182 7.272ZM94.4666 7.272C94.0293 7.272 93.6186 7.18933 93.2346 7.024C92.8506 6.864 92.512 6.64 92.2186 6.352C91.9306 6.05867 91.704 5.72 91.5386 5.336C91.3786 4.952 91.2986 4.54133 91.2986 4.104C91.2986 3.66133 91.3786 3.25067 91.5386 2.872C91.704 2.488 91.9306 2.152 92.2186 1.864C92.512 1.57067 92.8506 1.344 93.2346 1.184C93.6186 1.01867 94.0293 0.936 94.4666 0.936C94.9093 0.936 95.32 1.01867 95.6986 1.184C96.0826 1.344 96.4186 1.57067 96.7066 1.864C97 2.152 97.2266 2.488 97.3866 2.872C97.552 3.25067 97.6346 3.66133 97.6346 4.104C97.6346 4.54133 97.552 4.952 97.3866 5.336C97.2266 5.72 97 6.05867 96.7066 6.352C96.4186 6.64 96.0826 6.864 95.6986 7.024C95.32 7.18933 94.9093 7.272 94.4666 7.272ZM109.615 7.272C109.178 7.272 108.767 7.18933 108.383 7.024C107.999 6.864 107.66 6.64 107.367 6.352C107.079 6.05867 106.852 5.72 106.687 5.336C106.527 4.952 106.447 4.54133 106.447 4.104C106.447 3.66133 106.527 3.25067 106.687 2.872C106.852 2.488 107.079 2.152 107.367 1.864C107.66 1.57067 107.999 1.344 108.383 1.184C108.767 1.01867 109.178 0.936 109.615 0.936C110.058 0.936 110.468 1.01867 110.847 1.184C111.231 1.344 111.567 1.57067 111.855 1.864C112.148 2.152 112.375 2.488 112.535 2.872C112.7 3.25067 112.783 3.66133 112.783 4.104C112.783 4.54133 112.7 4.952 112.535 5.336C112.375 5.72 112.148 6.05867 111.855 6.352C111.567 6.64 111.231 6.864 110.847 7.024C110.468 7.18933 110.058 7.272 109.615 7.272Z" fill="#011627"/>
</svg>
