<svg width="16" height="16" viewBox="0 0 16 16" fill="none" xmlns="http://www.w3.org/2000/svg">
<path d="M7.82173 2.00305C5.33153 2.08671 3.2628 3.94678 3.0238 6.32107C2.97497 6.79593 3.00324 7.25602 3.09061 7.69644C3.09061 7.69644 3.09832 7.74811 3.12402 7.84652C3.20112 8.17622 3.31676 8.49607 3.46067 8.79624C3.9618 9.93295 5.12081 11.8348 7.7215 13.904C7.88084 14.032 8.11469 14.032 8.2766 13.904C10.8773 11.8373 12.0363 9.93541 12.54 8.79378C12.6865 8.49361 12.7996 8.17622 12.8766 7.84406C12.8998 7.74811 12.9101 7.69398 12.9101 7.69398C12.9692 7.39873 13 7.0961 13 6.78609C13 4.08456 10.664 1.9071 7.82173 2.00305Z" stroke="#011627" stroke-width="2"/>
<path d="M6 7C6 8.10476 6.89524 9 8 9C9.10476 9 10 8.10476 10 7C10 5.89524 9.10476 5 8 5C6.89524 5 6 5.89524 6 7Z" fill="#011627"/>
</svg>
