<svg width="16" height="16" viewBox="0 0 16 16" fill="none" xmlns="http://www.w3.org/2000/svg">
<path d="M12.7115 11.6595L11.456 10.68L9.64995 7.96183L10.257 7.56121C10.257 7.56121 10.4479 7.4414 10.32 7.24875C10.1554 7.00081 7.90681 3.61671 7.90681 3.61671C7.71618 3.32987 7.32706 3.2509 7.03935 3.44083L6.55089 3.76323V3.62481C6.55089 3.28029 6.26998 3 5.92466 3H4.67098C4.32567 3 4.04473 3.28029 4.04473 3.62481V7.84952C3.44142 8.02825 3 8.58758 3 9.24806V12.3713C3 12.7159 3.28037 12.9962 3.625 12.9962H6.97062C7.31525 12.9962 7.59562 12.7159 7.59562 12.3713V9.24804C7.59562 8.58756 7.15421 8.02823 6.55089 7.8495V6.10071L8.24031 8.6434C8.24033 8.64342 8.26918 8.67808 8.26918 8.67808C8.39291 8.79981 8.52818 8.70225 8.52823 8.70221C8.52831 8.70217 9.30222 8.19138 9.30222 8.19138L11.1089 10.9105L11.5236 12.4449C11.5871 12.6798 11.7544 12.8641 11.9825 12.9504C12.0702 12.9836 12.1608 13 12.2507 13C12.3951 13 12.5376 12.9577 12.6633 12.8747C12.8672 12.7401 12.9897 12.5231 12.9994 12.2794C13.009 12.0357 12.9041 11.8098 12.7115 11.6595ZM4.46139 3.62481C4.46139 3.51 4.55542 3.41662 4.67098 3.41662H5.92466C6.04023 3.41662 6.13425 3.51002 6.13425 3.62481V4.03823L5.99408 4.13073C5.85439 4.22294 5.75914 4.36392 5.72585 4.52769C5.6926 4.69127 5.72519 4.85798 5.81762 4.9971L6.13554 5.47558C6.13466 5.48329 6.13423 5.49115 6.13423 5.49908V7.78981H4.46139V3.62481ZM7.17896 9.24806V12.3713C7.17896 12.4861 7.0855 12.5796 6.97062 12.5796H3.625C3.51012 12.5796 3.41667 12.4861 3.41667 12.3713V9.24806C3.41667 8.67371 3.88396 8.20646 4.45833 8.20646H6.13729C6.71168 8.20646 7.17896 8.67371 7.17896 9.24806ZM8.47241 8.23983L6.16466 4.76652C6.13396 4.72029 6.12312 4.66494 6.13414 4.61067C6.14523 4.55617 6.177 4.50921 6.2236 4.47846L7.26889 3.78858C7.30454 3.76506 7.34479 3.75381 7.38462 3.75381C7.45266 3.75381 7.51948 3.78669 7.55977 3.84731L9.86679 7.31954L8.47241 8.23983ZM12.583 12.2629C12.5788 12.371 12.5244 12.4672 12.4338 12.527C12.3427 12.5871 12.232 12.5993 12.1299 12.5607C12.0284 12.5223 11.9541 12.4405 11.9258 12.3362L11.6651 11.3717L12.4552 11.988C12.5407 12.0548 12.5873 12.1549 12.583 12.2629Z" fill="#011627" stroke="#011627"/>
</svg>
