<svg width="16" height="16" viewBox="0 0 16 16" fill="none" xmlns="http://www.w3.org/2000/svg">
<path d="M5.56984 6.79078L4.25054 5.09091M5.56984 6.79078C6.3408 6.39778 7.18111 6.18182 8.06056 6.18182M5.56984 6.79078C4.852 7.15671 4.19429 7.67612 3.62107 8.31761M8.06056 6.18182C8.94002 6.18182 9.78033 6.39778 10.5513 6.79078M8.06056 6.18182V4M10.5513 6.79078L11.8706 5.09091M10.5513 6.79078C11.2081 7.12562 11.8147 7.58898 12.3522 8.1568M3.62107 8.31761C3.18022 8.81097 2.78936 9.37652 2.45956 10M3.62107 8.31761L2 7.31452M13.6616 10C13.2953 9.30766 12.8538 8.68674 12.3522 8.1568M12.3522 8.1568L14 7.12299" stroke="#011627" stroke-width="2" stroke-linecap="round" stroke-linejoin="round"/>
<circle cx="8" cy="10" r="1" stroke="#011627" stroke-width="2"/>
</svg>
