<svg width="16" height="16" viewBox="0 0 16 16" fill="none" xmlns="http://www.w3.org/2000/svg">
<path fill-rule="evenodd" clip-rule="evenodd" d="M7.99983 8.25275C7.42602 8.25275 6.83123 8.66177 6.83123 9.31073V10.2183C6.83123 10.8673 7.42602 11.2763 7.99983 11.2763C8.57364 11.2763 9.16843 10.8673 9.16843 10.2183V9.31073C9.16843 8.66177 8.57364 8.25275 7.99983 8.25275Z" fill="#011627"/>
<path fill-rule="evenodd" clip-rule="evenodd" d="M13.1998 8.0477C13.1998 7.19347 12.6753 6.46382 11.9333 6.14965V5.38543C11.9333 3.35578 10.114 1.7998 7.99981 1.7998C6.60554 1.7998 5.34747 2.47248 4.64622 3.51003C4.39947 3.87512 4.58159 4.32803 4.9329 4.50943C5.33344 4.71624 5.78427 4.52011 6.02643 4.21801C6.45067 3.68874 7.16102 3.32399 7.99981 3.32399C9.38397 3.32399 10.3988 4.30714 10.3988 5.38543V5.98281H4.88192C3.7351 5.98281 2.7998 6.90692 2.7998 8.0477V12.1349C2.7998 13.2757 3.7351 14.1998 4.88192 14.1998H11.1177C12.2645 14.1998 13.1998 13.2757 13.1998 12.1349V8.0477ZM11.6652 12.1349C11.6652 12.4308 11.4208 12.6756 11.1177 12.6756H4.88192C4.57881 12.6756 4.33437 12.4308 4.33437 12.1349V8.0477C4.33437 7.75183 4.57881 7.50699 4.88192 7.50699H11.1177C11.4208 7.50699 11.6652 7.75183 11.6652 8.0477V12.1349Z" fill="#011627"/>
</svg>
