<svg width="16" height="16" viewBox="0 0 16 16" fill="none" xmlns="http://www.w3.org/2000/svg">
<path fill-rule="evenodd" clip-rule="evenodd" d="M13.1124 7.11243H12.2019C12.0905 6.58532 11.8822 6.09421 11.5972 5.65795L12.2425 5.01265C12.5893 4.66583 12.5893 4.10435 12.2425 3.75752C11.8957 3.4107 11.3342 3.4107 10.9873 3.75752L10.3421 4.40282C9.90579 4.11778 9.41468 3.90953 8.88757 3.79815V2.88757C8.88757 2.39708 8.4905 2 8 2C7.5095 2 7.11243 2.39708 7.11243 2.88757V3.79815C6.58532 3.90953 6.09421 4.11778 5.65795 4.40282L5.01265 3.75752C4.66583 3.4107 4.10435 3.4107 3.75752 3.75752C3.4107 4.10435 3.4107 4.66583 3.75752 5.01265L4.40282 5.65795C4.11778 6.09421 3.90953 6.58532 3.79815 7.11243H2.88757C2.39708 7.11243 2 7.5095 2 8C2 8.4905 2.39708 8.88757 2.88757 8.88757H3.79815C3.90953 9.41468 4.11778 9.90579 4.40282 10.3421L3.75752 10.9873C3.4107 11.3342 3.4107 11.8957 3.75752 12.2425C3.93043 12.4154 4.15833 12.5025 4.38509 12.5025C4.61185 12.5025 4.83975 12.4154 5.01265 12.2425L5.65795 11.5972C6.09421 11.8822 6.58532 12.0905 7.11243 12.2019V13.1124C7.11243 13.6029 7.5095 14 8 14C8.4905 14 8.88757 13.6029 8.88757 13.1124V12.2019C9.41468 12.0905 9.90579 11.8822 10.3421 11.5972L10.9873 12.2425C11.1603 12.4154 11.3882 12.5025 11.6149 12.5025C11.8417 12.5025 12.0696 12.4154 12.2425 12.2425C12.5893 11.8957 12.5893 11.3342 12.2425 10.9873L11.5972 10.3421C11.8822 9.90579 12.0905 9.41468 12.2019 8.88757H13.1124C13.6029 8.88757 14 8.4905 14 8C14 7.5095 13.6029 7.11243 13.1124 7.11243ZM8 10.5207C6.61083 10.5207 5.47929 9.38917 5.47929 8C5.47929 6.61083 6.61083 5.47929 8 5.47929C9.38917 5.47929 10.5207 6.61083 10.5207 8C10.5207 9.38917 9.38917 10.5207 8 10.5207Z" fill="white"/>
</svg>
