<svg width="15" height="16" viewBox="0 0 15 16" fill="none" xmlns="http://www.w3.org/2000/svg">
<path d="M12.1082 4.72518C12.0692 4.68621 12.0192 4.66662 11.9585 4.66662H9.9467L9.49097 3.57944C9.42589 3.41881 9.30868 3.28208 9.1395 3.16922C8.97016 3.05639 8.79864 3 8.62508 3H6.54168C6.36812 3 6.19664 3.05639 6.02737 3.16922C5.85808 3.28208 5.74089 3.41879 5.67576 3.57944L5.22004 4.66662H3.20831C3.14749 4.66662 3.09764 4.68621 3.05856 4.72518C3.01959 4.76424 3 4.81418 3 4.87493V5.29164C3 5.35239 3.0195 5.40233 3.05856 5.44132C3.09764 5.48036 3.14758 5.49988 3.20831 5.49988H3.83326V11.6979C3.83326 12.0582 3.93526 12.3652 4.13924 12.6191C4.34326 12.8731 4.58849 13 4.87497 13H10.2918C10.5783 13 10.8235 12.8687 11.0275 12.6062C11.2315 12.3435 11.3334 12.0322 11.3334 11.6719V5.49988H11.9585C12.0192 5.49988 12.0692 5.48036 12.1082 5.44132C12.1471 5.40235 12.1668 5.35239 12.1668 5.29164V4.87493C12.1668 4.81418 12.1471 4.76424 12.1082 4.72518ZM6.44406 3.9048C6.47441 3.86576 6.51133 3.84181 6.55473 3.83319H8.61853C8.66193 3.84188 8.69892 3.8658 8.72922 3.9048L9.04184 4.66653H6.12504L6.44406 3.9048ZM10.5002 11.672C10.5002 11.7674 10.485 11.8554 10.4546 11.9356C10.4242 12.0158 10.3926 12.0744 10.3602 12.1113C10.3275 12.1483 10.3049 12.1667 10.2918 12.1667H4.875C4.86197 12.1667 4.83931 12.1483 4.80668 12.1113C4.77409 12.0744 4.7426 12.0158 4.7122 11.9356C4.68185 11.8554 4.66666 11.7673 4.66666 11.672V5.49988H10.5001V11.672H10.5002Z" fill="#011627" stroke="#011627"/>
</svg>
