<svg width="16" height="17" viewBox="0 0 16 17" fill="none" xmlns="http://www.w3.org/2000/svg">
<path d="M8 4.47992C7.43385 4.47992 6.9725 4.67108 6.57187 5.07172C6.17112 5.47248 5.9799 5.93396 5.9799 6.49991C5.9799 7.06605 6.17112 7.52751 6.57183 7.92815L8 4.47992ZM8 4.47992C8.56604 4.47992 9.02748 4.67107 9.42821 5.0717M8 4.47992L9.42821 5.0717M9.42821 5.0717C9.42822 5.07171 9.42823 5.07172 9.42824 5.07174C9.82889 5.4725 10.0201 5.93397 10.0201 6.49991C10.0201 7.06604 9.82888 7.52742 9.42823 7.92819C9.0275 8.32893 8.56605 8.52008 8 8.52008C7.4341 8.52008 6.97272 8.32887 6.57185 7.92817L9.42821 5.0717ZM10.298 8.79784L10.298 8.79783C10.9279 8.16779 11.25 7.39064 11.25 6.49991C11.25 5.60946 10.928 4.83222 10.2979 4.20198L10.2978 4.20194C9.66772 3.572 8.89051 3.25 8 3.25C7.1093 3.25 6.33217 3.572 5.70212 4.20206C5.0721 4.83211 4.75 5.60936 4.75 6.49991C4.75 7.39063 5.07209 8.16788 5.70212 8.79794L5.70217 8.79798C6.33236 9.42789 7.10956 9.75 8 9.75C8.8906 9.75 9.66783 9.428 10.298 8.79784Z" fill="white" stroke="white" stroke-width="0.5"/>
<path d="M13.1245 11.0395L13.1245 11.0395C13.1741 11.3076 13.2082 11.5637 13.2251 11.8005M13.1245 11.0395L13.2251 11.8005M13.1245 11.0395C13.074 10.7672 13.0087 10.5079 12.9297 10.2692L12.9297 10.2691M13.1245 11.0395L12.9297 10.2691M13.2251 11.8005C13.2416 12.0278 13.2499 12.2644 13.25 12.5038M13.2251 11.8005L13.25 12.5038M12.9297 10.2691C12.8465 10.0175 12.7338 9.76996 12.5949 9.53349M12.9297 10.2691L12.5949 9.53349M11.3187 8.41832L11.3188 8.41837C11.6089 8.5297 11.8651 8.68439 12.0772 8.8809L11.3187 8.41832ZM11.3187 8.41832C11.0244 8.30558 10.7024 8.25009 10.3636 8.25009C10.1636 8.25009 9.99178 8.33584 9.76107 8.48129L9.76091 8.48139M11.3187 8.41832L9.76091 8.48139M9.76091 8.48139C9.62111 8.56967 9.45733 8.67194 9.27427 8.7852C9.14136 8.86719 8.95004 8.95046 8.69855 9.02912L8.69843 9.02916M9.76091 8.48139L8.69843 9.02916M8.69843 9.02916C8.46519 9.10224 8.23011 9.13877 7.99963 9.13877C7.76936 9.13877 7.53426 9.10224 7.30079 9.02914L7.30072 9.02912M8.69843 9.02916L7.30072 9.02912M7.30072 9.02912C7.04946 8.95053 6.85817 8.86729 6.72565 8.78541M7.30072 9.02912L6.72565 8.78541M3.92223 8.88103L3.92223 8.88103C4.13452 8.68433 4.39081 8.52961 4.68078 8.41844L3.92223 8.88103ZM3.92223 8.88103C3.72447 9.06426 3.55078 9.28433 3.40465 9.53349L3.92223 8.88103ZM3.06987 10.2694L3.06989 10.2693C3.1532 10.0173 3.26598 9.76987 3.40463 9.53352L3.06987 10.2694ZM3.06987 10.2694C2.99105 10.508 2.92575 10.7671 2.87527 11.0394L3.06987 10.2694ZM3.4217 14.1459L3.42162 14.1458C2.97091 13.7302 2.75 13.1693 2.75 12.504C2.75 12.2653 2.75824 12.0287 2.77459 11.8008L3.4217 14.1459ZM3.4217 14.1459C3.86349 14.553 4.44039 14.75 5.11433 14.75H10.8857C11.5594 14.75 12.1363 14.553 12.5782 14.1459L12.5782 14.1459M3.4217 14.1459L12.5782 14.1459M12.5782 14.1459C13.0291 13.7305 13.25 13.1693 13.25 12.5039V12.5038M12.5782 14.1459L13.25 12.5038M11.7551 13.2855L11.7551 13.2854C11.9434 13.1119 12.0475 12.8694 12.0476 12.5041C12.0475 12.2916 12.0402 12.0828 12.0258 11.8839L12.0257 11.8836C12.0121 11.6926 11.9838 11.4797 11.9415 11.2505C11.9001 11.0273 11.8476 10.8198 11.7861 10.6335C11.7292 10.4613 11.6509 10.2893 11.553 10.1226L11.553 10.1226C11.4622 9.96784 11.3603 9.83964 11.2518 9.73917L11.2518 9.73917C11.1583 9.65249 11.0351 9.57662 10.8813 9.51765C10.7628 9.47227 10.6277 9.44337 10.4771 9.43373C10.4594 9.44419 10.4376 9.45741 10.4113 9.474C10.2661 9.5657 10.1037 9.66703 9.91513 9.78376L9.9149 9.7839C9.68428 9.92629 9.3965 10.0495 9.06394 10.1535L11.7551 13.2855ZM11.7551 13.2855C11.5569 13.4681 11.2837 13.5699 10.8856 13.5699H5.11433C4.71608 13.5699 4.44294 13.4681 4.24485 13.2856C4.05644 13.1119 3.9524 12.8693 3.9524 12.504C3.9524 12.2921 3.95962 12.0834 3.97398 11.8836L3.97398 11.8835M11.7551 13.2855L3.97398 11.8835M3.97398 11.8835C3.98766 11.6921 4.01581 11.4793 4.05821 11.2508L4.05821 11.2508M3.97398 11.8835L4.05821 11.2508M4.05821 11.2508C4.09969 11.0272 4.15209 10.8196 4.21354 10.6336L4.05821 11.2508ZM4.74778 9.7391L4.74778 9.73911C4.63925 9.83972 4.53732 9.96797 4.44653 10.1226C4.34877 10.2892 4.27057 10.4612 4.21356 10.6336L4.74778 9.7391ZM4.74778 9.7391C4.84127 9.65243 4.9644 9.57664 5.11837 9.51764L5.11838 9.51763M4.74778 9.7391L5.11838 9.51763M5.11838 9.51763C5.23675 9.47227 5.37184 9.44336 5.52239 9.43373C5.54007 9.44416 5.56176 9.45734 5.58797 9.47389L5.58802 9.47392M5.11838 9.51763L5.58802 9.47392M5.58802 9.47392C5.73313 9.56549 5.90021 9.66985 6.08476 9.78398L6.08492 9.78408M5.58802 9.47392L6.08492 9.78408M6.08492 9.78408C6.31523 9.92627 6.60308 10.0495 6.9354 10.1534L6.08492 9.78408ZM12.5949 9.53349C12.4487 9.28431 12.275 9.06413 12.0772 8.88093L12.5949 9.53349ZM6.72565 8.78541C6.54423 8.67315 6.38026 8.57083 6.23827 8.48125L6.72565 8.78541ZM5.63584 8.25C5.8359 8.25 6.00769 8.33576 6.23826 8.48124L5.63584 8.25ZM5.63584 8.25C5.29688 8.25 4.97502 8.30559 4.68082 8.41843L5.63584 8.25ZM2.87526 11.0395C2.82555 11.3073 2.79155 11.5634 2.7746 11.8007L2.87526 11.0395ZM6.9355 10.1535C7.28511 10.2629 7.6431 10.3189 7.99973 10.3189C8.35636 10.3189 8.71446 10.2629 9.06392 10.1535L6.9355 10.1535Z" fill="white" stroke="white" stroke-width="0.5"/>
</svg>
