<svg width="16" height="16" viewBox="0 0 16 16" fill="none" xmlns="http://www.w3.org/2000/svg">
<path d="M8 3.97992C7.43385 3.97992 6.9725 4.17108 6.57187 4.57172C6.17112 4.97248 5.9799 5.43396 5.9799 5.99991C5.9799 6.56605 6.17112 7.02751 6.57183 7.42815L8 3.97992ZM8 3.97992C8.56604 3.97992 9.02748 4.17107 9.42821 4.5717M8 3.97992L9.42821 4.5717M9.42821 4.5717C9.42822 4.57171 9.42823 4.57172 9.42824 4.57174C9.82889 4.9725 10.0201 5.43397 10.0201 5.99991C10.0201 6.56604 9.82888 7.02742 9.42823 7.42819C9.0275 7.82893 8.56605 8.02008 8 8.02008C7.4341 8.02008 6.97272 7.82887 6.57185 7.42817L9.42821 4.5717ZM10.298 8.29784L10.298 8.29783C10.9279 7.66779 11.25 6.89064 11.25 5.99991C11.25 5.10946 10.928 4.33222 10.2979 3.70198L10.2978 3.70194C9.66772 3.072 8.89051 2.75 8 2.75C7.1093 2.75 6.33217 3.072 5.70212 3.70206C5.0721 4.33211 4.75 5.10936 4.75 5.99991C4.75 6.89063 5.07209 7.66788 5.70212 8.29794L5.70217 8.29798C6.33236 8.92789 7.10956 9.25 8 9.25C8.8906 9.25 9.66783 8.928 10.298 8.29784Z" fill="#011627" stroke="#011627" stroke-width="0.5"/>
<path d="M13.1245 10.5395L13.1245 10.5395C13.1741 10.8076 13.2082 11.0637 13.2251 11.3005M13.1245 10.5395L13.2251 11.3005M13.1245 10.5395C13.074 10.2672 13.0087 10.0079 12.9297 9.76918L12.9297 9.76914M13.1245 10.5395L12.9297 9.76914M13.2251 11.3005C13.2416 11.5278 13.2499 11.7644 13.25 12.0038M13.2251 11.3005L13.25 12.0038M12.9297 9.76914C12.8465 9.51746 12.7338 9.26996 12.5949 9.03349M12.9297 9.76914L12.5949 9.03349M11.3187 7.91832L11.3188 7.91837C11.6089 8.0297 11.8651 8.18439 12.0772 8.3809L11.3187 7.91832ZM11.3187 7.91832C11.0244 7.80558 10.7024 7.75009 10.3636 7.75009C10.1636 7.75009 9.99178 7.83584 9.76107 7.98129L9.76091 7.98139M11.3187 7.91832L9.76091 7.98139M9.76091 7.98139C9.62111 8.06967 9.45733 8.17194 9.27427 8.2852C9.14136 8.36719 8.95004 8.45046 8.69855 8.52912L8.69843 8.52916M9.76091 7.98139L8.69843 8.52916M8.69843 8.52916C8.46519 8.60224 8.23011 8.63877 7.99963 8.63877C7.76936 8.63877 7.53426 8.60224 7.30079 8.52914L7.30072 8.52912M8.69843 8.52916L7.30072 8.52912M7.30072 8.52912C7.04946 8.45053 6.85817 8.36729 6.72565 8.28541M7.30072 8.52912L6.72565 8.28541M3.92223 8.38103L3.92223 8.38103C4.13452 8.18433 4.39081 8.02961 4.68078 7.91844L3.92223 8.38103ZM3.92223 8.38103C3.72447 8.56426 3.55078 8.78433 3.40465 9.03349L3.92223 8.38103ZM3.06987 9.76935L3.06989 9.76928C3.1532 9.51729 3.26598 9.26987 3.40463 9.03352L3.06987 9.76935ZM3.06987 9.76935C2.99105 10.008 2.92575 10.2671 2.87527 10.5394L3.06987 9.76935ZM3.4217 13.6459L3.42162 13.6458C2.97091 13.2302 2.75 12.6693 2.75 12.004C2.75 11.7653 2.75824 11.5287 2.77459 11.3008L3.4217 13.6459ZM3.4217 13.6459C3.86349 14.053 4.44039 14.25 5.11433 14.25H10.8857C11.5594 14.25 12.1363 14.053 12.5782 13.6459L12.5782 13.6459M3.4217 13.6459L12.5782 13.6459M12.5782 13.6459C13.0291 13.2305 13.25 12.6693 13.25 12.0039V12.0038M12.5782 13.6459L13.25 12.0038M11.7551 12.7855L11.7551 12.7854C11.9434 12.6119 12.0475 12.3694 12.0476 12.0041C12.0475 11.7916 12.0402 11.5828 12.0258 11.3839L12.0257 11.3836C12.0121 11.1926 11.9838 10.9797 11.9415 10.7505C11.9001 10.5273 11.8476 10.3198 11.7861 10.1335C11.7292 9.96134 11.6509 9.78926 11.553 9.62264L11.553 9.62255C11.4622 9.46784 11.3603 9.33964 11.2518 9.23917L11.2518 9.23917C11.1583 9.15249 11.0351 9.07662 10.8813 9.01765C10.7628 8.97227 10.6277 8.94337 10.4771 8.93373C10.4594 8.94419 10.4376 8.95741 10.4113 8.974C10.2661 9.0657 10.1037 9.16703 9.91513 9.28376L9.9149 9.2839C9.68428 9.42629 9.3965 9.54946 9.06394 9.65351L11.7551 12.7855ZM11.7551 12.7855C11.5569 12.9681 11.2837 13.0699 10.8856 13.0699H5.11433C4.71608 13.0699 4.44294 12.9681 4.24485 12.7856C4.05644 12.6119 3.9524 12.3693 3.9524 12.004C3.9524 11.7921 3.95962 11.5834 3.97398 11.3836L3.97398 11.3835M11.7551 12.7855L3.97398 11.3835M3.97398 11.3835C3.98766 11.1921 4.01581 10.9793 4.05821 10.7508L4.05821 10.7508M3.97398 11.3835L4.05821 10.7508M4.05821 10.7508C4.09969 10.5272 4.15209 10.3196 4.21354 10.1336L4.05821 10.7508ZM4.74778 9.2391L4.74778 9.23911C4.63925 9.33972 4.53732 9.46797 4.44653 9.62256C4.34877 9.78924 4.27057 9.96124 4.21356 10.1336L4.74778 9.2391ZM4.74778 9.2391C4.84127 9.15243 4.9644 9.07664 5.11837 9.01764L5.11838 9.01763M4.74778 9.2391L5.11838 9.01763M5.11838 9.01763C5.23675 8.97227 5.37184 8.94336 5.52239 8.93373C5.54007 8.94416 5.56176 8.95734 5.58797 8.97389L5.58802 8.97392M5.11838 9.01763L5.58802 8.97392M5.58802 8.97392C5.73313 9.06549 5.90021 9.16985 6.08476 9.28398L6.08492 9.28408M5.58802 8.97392L6.08492 9.28408M6.08492 9.28408C6.31523 9.42627 6.60308 9.54953 6.9354 9.65342L6.08492 9.28408ZM12.5949 9.03349C12.4487 8.78431 12.275 8.56413 12.0772 8.38093L12.5949 9.03349ZM6.72565 8.28541C6.54423 8.17315 6.38026 8.07083 6.23827 7.98125L6.72565 8.28541ZM5.63584 7.75C5.8359 7.75 6.00769 7.83576 6.23826 7.98124L5.63584 7.75ZM5.63584 7.75C5.29688 7.75 4.97502 7.80559 4.68082 7.91843L5.63584 7.75ZM2.87526 10.5395C2.82555 10.8073 2.79155 11.0634 2.7746 11.3007L2.87526 10.5395ZM6.9355 9.65345C7.28511 9.7629 7.6431 9.81891 7.99973 9.81891C8.35636 9.81891 8.71446 9.7629 9.06392 9.65352L6.9355 9.65345Z" fill="#011627" stroke="#011627" stroke-width="0.5"/>
</svg>
